<?xml version="1.0" standalone="no"?>
<!DOCTYPE svg PUBLIC "-//W3C//DTD SVG 20010904//EN"
 "http://www.w3.org/TR/2001/REC-SVG-20010904/DTD/svg10.dtd">
<svg version="1.0" xmlns="http://www.w3.org/2000/svg"
 width="300.000000pt" height="300.000000pt" viewBox="0 0 300.000000 300.000000"
 preserveAspectRatio="xMidYMid meet">
<metadata>
Created by potrace 1.10, written by Peter Selinger 2001-2011
</metadata>
<g transform="translate(0.000000,300.000000) scale(0.050000,-0.050000)"
fill="#000000" stroke="none">
<path d="M4262 5295 c-96 -177 -860 -1453 -913 -1525 -24 -33 -82 -127 -128
-210 -46 -82 -91 -158 -101 -167 -9 -10 -55 49 -103 131 -48 81 -316 523 -596
982 l-509 834 -306 0 c-168 0 -306 -3 -306 -8 0 -4 35 -60 78 -125 43 -64 176
-279 296 -477 412 -678 1012 -1660 1076 -1761 l65 -101 -145 -239 c-322 -534
-1210 -2036 -1210 -2047 0 -32 590 0 616 34 14 18 251 416 528 884 553 935
518 879 530 846 5 -13 161 -273 347 -578 l339 -555 0 -315 0 -316 260 -6 260
-6 0 2425 c0 1334 -2 2425 -5 2425 -3 0 -36 -57 -73 -125z m-2363 -240 c81
-136 207 -343 821 -1345 296 -484 284 -470 390 -470 101 0 120 19 281 287 66
109 156 257 201 330 44 73 191 318 324 543 134 226 252 424 262 440 13 19 20
-713 21 -2055 l1 -2085 -120 0 -120 0 0 301 c0 264 -5 307 -38 355 -21 30
-166 265 -322 524 -376 621 -359 600 -478 600 -127 0 -111 22 -572 -760 -218
-369 -443 -746 -500 -840 l-104 -170 -113 -6 c-62 -3 -113 -1 -113 6 0 10 277
480 530 900 150 249 664 1119 689 1167 50 95 11 169 -670 1282 -374 610 -682
1117 -686 1125 -3 9 47 16 112 16 l119 0 85 -145z"/>
<path d="M3704 3649 c-108 -123 -424 -701 -424 -777 0 -81 304 -618 420 -742
50 -53 161 -53 221 0 62 57 61 1462 -1 1516 -50 42 -180 44 -216 3z m111
-1101 l-5 -332 -190 317 c-104 174 -193 322 -196 329 -3 7 61 124 142 260 82
136 170 289 196 338 l48 90 5 -335 c3 -184 3 -485 0 -667z"/>
</g>
</svg>
