<?xml version="1.0" standalone="no"?>
<!DOCTYPE svg PUBLIC "-//W3C//DTD SVG 20010904//EN"
 "http://www.w3.org/TR/2001/REC-SVG-20010904/DTD/svg10.dtd">
<svg version="1.0" xmlns="http://www.w3.org/2000/svg"
 width="300.000000pt" height="300.000000pt" viewBox="0 0 300.000000 300.000000"
 preserveAspectRatio="xMidYMid meet">
<metadata>
Created by potrace 1.10, written by Peter Selinger 2001-2011
</metadata>
<g transform="translate(0.000000,300.000000) scale(0.050000,-0.050000)"
fill="#000000" stroke="none">
<path d="M3738 4630 c-1269 -241 -2012 -1575 -1544 -2775 62 -161 71 -148
-115 -177 -562 -87 -1262 224 -1532 682 -45 76 -32 78 -256 -45 -225 -125
-219 -100 -74 -292 933 -1225 2815 -1045 3491 333 256 520 284 1145 75 1644
-73 174 -82 158 100 184 636 90 1349 -261 1624 -798 l33 -64 131 80 c72 44
162 94 200 113 82 39 82 40 -46 233 -440 664 -1307 1031 -2087 882z m827 -138
c453 -115 831 -362 1095 -717 143 -192 140 -174 35 -230 -110 -58 -119 -57
-163 17 -299 507 -1046 824 -1699 721 -229 -35 -255 -93 -153 -336 291 -694
89 -1563 -490 -2103 -759 -709 -1922 -703 -2677 15 -111 105 -266 296 -250
309 4 3 48 28 98 55 l92 50 156 -167 c398 -428 952 -618 1530 -528 240 38 261
80 161 323 -587 1423 766 2971 2265 2591z"/>
<path d="M3256 4060 c-199 -36 -579 -448 -719 -781 -228 -543 -128 -1479 158
-1479 186 0 603 449 749 805 228 562 107 1507 -188 1455z m111 -260 c232 -694
19 -1379 -568 -1831 -133 -102 -124 -107 -194 101 -222 651 -17 1350 523 1787
178 143 172 145 239 -57z"/>
</g>
</svg>
