<?xml version="1.0" standalone="no"?>
<!DOCTYPE svg PUBLIC "-//W3C//DTD SVG 20010904//EN"
 "http://www.w3.org/TR/2001/REC-SVG-20010904/DTD/svg10.dtd">
<svg version="1.0" xmlns="http://www.w3.org/2000/svg"
 width="300.000000pt" height="300.000000pt" viewBox="0 0 300.000000 300.000000"
 preserveAspectRatio="xMidYMid meet">
<metadata>
Created by potrace 1.10, written by Peter Selinger 2001-2011
</metadata>
<g transform="translate(0.000000,300.000000) scale(0.050000,-0.050000)"
fill="#000000" stroke="none">
<path d="M2858 5545 c-171 -151 -499 -441 -729 -645 -230 -203 -545 -483 -700
-621 -155 -138 -317 -279 -360 -315 l-78 -64 132 -135 c72 -74 382 -414 689
-755 821 -914 1475 -1639 1488 -1650 17 -15 918 -1017 1017 -1130 l86 -100 -9
70 c-6 39 -92 448 -192 910 -230 1064 -346 1602 -512 2380 -73 341 -200 935
-282 1320 -83 385 -164 770 -182 855 -17 85 -38 155 -45 155 -7 0 -153 -124
-323 -275z m320 -195 c23 -110 65 -312 93 -450 29 -137 69 -322 89 -410 21
-88 56 -250 78 -360 22 -110 59 -285 83 -390 23 -104 50 -230 59 -280 28 -149
159 -761 189 -890 16 -66 48 -210 70 -320 22 -110 58 -281 80 -380 21 -99 48
-225 60 -280 95 -449 165 -770 180 -820 10 -33 24 -100 31 -150 l12 -90 -53
60 c-88 100 -485 541 -718 798 -120 133 -292 323 -381 422 -90 99 -261 289
-382 422 -120 132 -327 362 -460 510 -134 147 -420 464 -637 704 -216 240
-391 444 -387 454 3 10 56 62 118 114 62 53 300 263 530 466 230 204 526 466
658 582 132 117 326 289 430 383 217 194 195 202 258 -95z"/>
<path d="M2477 4798 c-213 -189 -418 -371 -457 -406 -38 -34 -171 -152 -295
-260 -284 -249 -286 -258 -89 -473 132 -145 1141 -1262 1682 -1862 237 -263
275 -297 331 -297 131 0 136 47 50 460 -34 160 -69 331 -79 380 -10 50 -46
216 -80 370 -33 154 -79 375 -101 490 -22 116 -48 237 -58 270 -10 33 -42 177
-71 320 -29 143 -83 395 -120 560 -36 165 -86 395 -111 510 -80 384 -100 382
-602 -62z m481 72 c11 -66 39 -205 62 -310 46 -208 51 -234 129 -600 29 -137
74 -344 101 -460 26 -115 66 -300 88 -410 22 -110 59 -285 82 -390 23 -104 72
-334 110 -510 37 -176 81 -378 98 -449 40 -170 45 -172 -160 63 -98 113 -317
358 -488 546 -170 188 -467 516 -660 729 -192 214 -432 478 -533 588 l-183
199 93 80 c51 44 161 141 243 215 573 516 970 857 983 844 8 -8 24 -69 35
-135z"/>
</g>
</svg>
