<?xml version="1.0" standalone="no"?>
<!DOCTYPE svg PUBLIC "-//W3C//DTD SVG 20010904//EN"
 "http://www.w3.org/TR/2001/REC-SVG-20010904/DTD/svg10.dtd">
<svg version="1.0" xmlns="http://www.w3.org/2000/svg"
 width="300.000000pt" height="300.000000pt" viewBox="0 0 300.000000 300.000000"
 preserveAspectRatio="xMidYMid meet">
<metadata>
Created by potrace 1.10, written by Peter Selinger 2001-2011
</metadata>
<g transform="translate(0.000000,300.000000) scale(0.050000,-0.050000)"
fill="#000000" stroke="none">
<path d="M1813 4970 c-579 -120 -1043 -454 -1356 -976 -136 -226 -147 -214
192 -214 267 0 291 3 310 39 12 21 57 81 102 132 694 802 1945 667 2442 -263
l66 -124 -308 -457 c-169 -251 -390 -578 -491 -727 -101 -148 -317 -468 -480
-710 -163 -242 -323 -473 -354 -514 -71 -92 -85 -88 289 -80 l315 7 167 243
c280 409 931 1375 1030 1529 88 136 123 172 123 125 0 -19 375 -731 833 -1585
l170 -315 311 0 311 0 -30 45 c-39 60 -111 193 -505 935 -184 347 -443 833
-576 1080 -132 248 -280 534 -328 637 -413 890 -1332 1381 -2233 1193z m729
-158 c617 -130 1053 -485 1347 -1096 59 -124 152 -307 206 -406 54 -99 150
-279 214 -400 65 -121 218 -409 342 -640 650 -1217 581 -1050 434 -1050 l-115
0 -79 155 c-44 85 -121 232 -172 325 -51 94 -147 274 -214 400 -701 1321 -609
1282 -1149 480 -159 -236 -431 -639 -604 -895 l-314 -465 -132 0 c-125 0 -130
2 -103 38 43 60 455 665 1002 1472 607 895 593 843 325 1220 -629 885 -1974
920 -2623 68 -73 -95 -78 -98 -178 -98 -142 0 -142 5 -11 177 440 577 1151
856 1824 715z"/>
</g>
</svg>
