<?xml version="1.0" standalone="no"?>
<!DOCTYPE svg PUBLIC "-//W3C//DTD SVG 20010904//EN"
 "http://www.w3.org/TR/2001/REC-SVG-20010904/DTD/svg10.dtd">
<svg version="1.0" xmlns="http://www.w3.org/2000/svg"
 width="300.000000pt" height="300.000000pt" viewBox="0 0 300.000000 300.000000"
 preserveAspectRatio="xMidYMid meet">
<metadata>
Created by potrace 1.10, written by Peter Selinger 2001-2011
</metadata>
<g transform="translate(0.000000,300.000000) scale(0.050000,-0.050000)"
fill="#000000" stroke="none">
<path d="M4355 5595 c-66 -63 -2255 -5170 -2255 -5260 0 -165 198 -252 319
-140 78 72 2261 5149 2261 5259 0 157 -212 249 -325 141z m203 -112 c15 -28
-8 -100 -100 -315 -66 -153 -562 -1308 -1102 -2568 -1043 -2433 -1005 -2352
-1084 -2332 -88 22 -73 61 560 1536 336 785 828 1930 1092 2546 265 616 490
1131 501 1145 30 37 111 30 133 -12z"/>
<path d="M3111 5575 c-40 -35 -1555 -3506 -1797 -4116 -88 -224 271 -369 373
-151 161 340 1753 4086 1753 4125 0 143 -220 238 -329 142z m196 -118 c20 -32
-61 -224 -1565 -3727 -170 -394 -173 -400 -236 -406 -75 -7 -107 59 -67 135
18 33 1591 3687 1712 3977 31 74 115 85 156 21z"/>
</g>
</svg>
