<?xml version="1.0" standalone="no"?>
<!DOCTYPE svg PUBLIC "-//W3C//DTD SVG 20010904//EN"
 "http://www.w3.org/TR/2001/REC-SVG-20010904/DTD/svg10.dtd">
<svg version="1.0" xmlns="http://www.w3.org/2000/svg"
 width="900.000000pt" height="900.000000pt" viewBox="0 0 900.000000 900.000000"
 preserveAspectRatio="xMidYMid meet">
<metadata>
Created by potrace 1.10, written by Peter Selinger 2001-2011
</metadata>
<g transform="translate(0.000000,900.000000) scale(0.100000,-0.100000)"
fill="#000000" stroke="none">
<path d="M4180 7640 c-91 -3 -196 -12 -235 -19 -199 -36 -235 -43 -290 -57
-120 -31 -253 -70 -310 -91 -84 -32 -121 -46 -150 -59 -16 -7 -57 -25 -90 -39
-95 -43 -224 -107 -305 -155 -68 -39 -268 -170 -294 -192 -6 -5 -60 -48 -121
-96 -135 -107 -280 -245 -389 -372 -77 -88 -296 -373 -296 -384 0 -3 -13 -24
-29 -48 -64 -97 -182 -324 -237 -457 -20 -47 -42 -101 -50 -119 -8 -18 -14
-37 -14 -43 0 -6 -6 -25 -14 -42 -12 -29 -24 -67 -62 -197 -30 -105 -48 -193
-89 -435 -22 -129 -21 -718 0 -860 70 -453 190 -811 392 -1165 118 -207 278
-427 428 -590 105 -115 146 -155 250 -245 44 -39 86 -76 93 -83 16 -14 152
-117 192 -145 107 -73 176 -117 275 -174 101 -57 309 -153 475 -219 39 -15
207 -68 285 -89 108 -30 311 -69 450 -87 133 -17 628 -17 760 0 357 46 683
138 973 273 46 22 85 39 87 39 2 0 52 27 111 60 59 33 109 60 111 60 1 0 32
20 69 45 36 25 67 45 69 45 5 0 141 99 246 179 143 109 400 376 535 556 124
164 178 243 214 310 6 11 26 47 45 80 34 58 108 208 145 290 58 132 84 207
154 435 8 25 21 83 31 130 9 47 23 112 30 145 31 137 40 273 40 590 0 318 -7
413 -41 580 -44 213 -53 248 -99 390 -14 44 -30 94 -34 110 -5 17 -20 56 -35
89 -14 32 -26 63 -26 68 0 11 -148 310 -192 388 -17 30 -41 69 -54 87 -13 17
-24 34 -24 37 0 3 -28 44 -62 91 -35 47 -73 100 -86 118 -183 257 -538 586
-834 772 -164 104 -448 249 -558 285 -14 5 -50 18 -80 30 -50 19 -84 30 -235
75 -315 93 -642 124 -1125 105z m485 -590 c60 -6 130 -16 155 -22 25 -5 72
-14 105 -18 62 -7 138 -24 190 -42 17 -5 46 -14 65 -18 19 -4 51 -14 70 -20
86 -31 108 -39 150 -55 50 -19 153 -66 215 -98 57 -29 68 -35 85 -42 16 -6 34
-17 97 -58 24 -15 45 -27 47 -27 9 0 133 -89 146 -105 7 -8 17 -15 23 -15 13
0 77 -60 77 -72 0 -11 -386 -395 -417 -415 -24 -16 -43 -9 -93 33 -33 27 -161
104 -225 134 -27 13 -57 29 -65 35 -8 7 -24 15 -35 18 -11 3 -45 15 -75 27
-165 63 -373 120 -442 120 -24 0 -81 7 -128 15 -106 19 -261 19 -365 0 -44 -8
-100 -15 -123 -15 -42 0 -145 -21 -207 -42 -16 -5 -46 -14 -65 -18 -38 -9 -88
-25 -135 -45 -16 -7 -50 -21 -75 -30 -89 -36 -190 -88 -268 -137 -24 -16 -45
-28 -48 -28 -2 0 -38 -25 -79 -55 -40 -30 -78 -55 -82 -55 -4 0 -101 93 -215
207 -135 135 -208 215 -208 228 0 21 125 120 277 218 81 52 319 177 338 177 7
0 18 7 25 15 7 8 22 15 34 15 12 0 30 6 41 14 11 7 31 16 45 19 14 3 50 15 80
27 30 12 74 25 98 30 24 4 48 12 54 18 7 7 26 12 44 12 17 0 48 7 67 15 20 8
54 15 75 15 21 0 61 7 88 15 27 8 74 15 104 16 30 0 78 4 105 9 76 11 325 11
450 0z m1952 -1149 c35 -51 63 -95 63 -98 0 -4 7 -14 15 -23 8 -9 30 -45 48
-80 19 -36 45 -85 58 -110 14 -25 39 -81 58 -125 18 -44 37 -88 42 -97 5 -10
19 -48 30 -85 11 -38 26 -79 31 -93 6 -14 14 -41 19 -60 4 -19 13 -54 18 -77
27 -108 32 -132 41 -196 5 -38 15 -85 21 -105 6 -20 9 -59 7 -87 l-3 -50 -310
0 -310 0 -7 66 c-3 37 -11 76 -17 87 -6 11 -11 39 -11 62 0 22 -6 55 -13 73
-8 18 -17 50 -21 72 -4 22 -11 45 -16 50 -4 6 -10 21 -13 35 -9 42 -66 183
-98 240 -4 8 -24 45 -43 82 -19 36 -53 95 -75 129 -23 35 -41 69 -41 76 0 7
96 107 212 222 195 193 214 209 232 197 11 -7 48 -54 83 -105z m-4089 -124
c117 -117 212 -218 212 -224 0 -12 -15 -41 -51 -98 -35 -56 -149 -289 -149
-306 0 -8 -7 -23 -15 -33 -8 -11 -15 -31 -15 -45 0 -14 -7 -35 -15 -45 -8 -11
-15 -31 -15 -44 0 -13 -5 -32 -11 -43 -12 -23 -38 -159 -45 -234 -3 -27 -7
-60 -10 -73 l-4 -22 -308 2 -307 3 1 75 c1 96 30 263 68 400 46 162 67 223 92
273 8 16 14 35 14 43 0 7 14 42 31 76 18 35 45 90 61 123 45 90 89 168 104
186 8 8 14 19 14 23 0 5 14 25 30 46 17 21 30 41 30 45 0 10 60 85 69 85 3 0
102 -96 219 -213z m2117 73 c28 -6 75 -13 105 -16 30 -4 64 -13 75 -20 11 -8
26 -14 35 -14 8 0 28 -7 44 -15 15 -8 41 -15 57 -15 15 0 30 -4 33 -9 7 -11
88 -51 103 -51 7 0 18 -6 25 -12 21 -20 50 -37 81 -49 15 -6 27 -15 27 -20 0
-5 6 -9 13 -9 7 0 26 -13 42 -30 16 -16 33 -30 38 -30 17 0 237 -213 237 -230
0 -4 7 -14 16 -21 18 -15 118 -164 134 -200 16 -35 36 -69 49 -82 6 -6 11 -21
11 -33 0 -12 7 -35 15 -50 8 -16 15 -36 15 -46 0 -9 5 -18 11 -20 11 -4 18
-30 40 -158 6 -36 17 -87 25 -114 20 -69 19 -353 -1 -403 -8 -19 -15 -49 -15
-65 0 -16 -7 -60 -16 -96 -16 -65 -22 -83 -58 -165 -9 -21 -16 -45 -16 -54 0
-9 -13 -38 -30 -65 -16 -26 -30 -51 -30 -55 0 -10 -85 -136 -139 -207 -55 -72
-176 -194 -237 -238 -24 -17 -44 -35 -44 -40 0 -4 -7 -8 -16 -8 -9 0 -33 -13
-53 -28 -20 -16 -56 -39 -81 -51 -25 -12 -59 -30 -76 -40 -16 -10 -41 -22 -55
-25 -25 -8 -73 -29 -121 -53 -14 -7 -44 -13 -66 -13 -22 0 -53 -7 -68 -15 -16
-8 -49 -15 -74 -15 -25 0 -53 -7 -64 -15 -27 -21 -340 -21 -380 0 -15 8 -44
15 -62 15 -19 0 -51 7 -71 15 -19 8 -53 15 -74 15 -24 0 -61 11 -94 29 -30 16
-69 33 -87 36 -18 4 -35 10 -38 14 -3 3 -40 24 -82 45 -43 22 -78 43 -78 46 0
4 -19 16 -43 28 -24 12 -54 33 -67 47 -13 14 -28 25 -34 25 -13 0 -236 225
-236 239 0 5 -12 23 -26 38 -14 15 -30 37 -35 48 -10 23 -31 58 -40 65 -11 10
-99 196 -105 224 -4 16 -13 41 -20 55 -8 14 -14 33 -14 41 0 8 -7 24 -15 34
-9 12 -15 42 -15 75 0 31 -7 78 -15 105 -18 59 -21 349 -4 411 6 22 14 74 18
115 4 41 12 84 17 95 38 73 44 88 44 102 0 8 6 29 14 46 8 18 17 39 20 47 3 8
17 35 31 59 14 24 25 48 25 52 0 11 51 86 121 179 48 63 101 120 198 211 42
38 181 139 193 139 7 0 25 11 40 25 14 13 39 27 55 31 15 4 46 19 68 32 22 14
56 29 75 33 36 7 83 23 135 45 87 36 478 58 610 34z m-2207 -1852 c7 -7 12
-27 12 -45 0 -18 6 -50 14 -70 7 -21 21 -65 31 -98 40 -138 175 -414 257 -525
170 -230 325 -383 547 -541 20 -14 43 -28 51 -32 8 -4 38 -21 65 -37 28 -17
88 -48 135 -71 47 -22 98 -46 113 -54 16 -8 36 -15 45 -15 8 0 50 -13 91 -29
95 -36 159 -52 238 -60 107 -11 103 2 103 -325 0 -155 -3 -292 -7 -304 -5 -21
-10 -23 -42 -18 -20 3 -58 8 -86 11 -27 3 -72 12 -100 20 -27 7 -84 21 -125
30 -91 21 -228 65 -330 106 -107 44 -317 147 -368 180 -24 16 -45 29 -47 29
-8 0 -175 117 -254 179 -113 87 -421 393 -421 419 0 5 -10 17 -21 28 -25 22
-22 17 -190 271 -32 49 -179 345 -179 362 0 6 -7 27 -16 48 -45 106 -68 175
-79 236 -4 20 -11 40 -16 43 -5 3 -9 21 -9 40 0 20 -4 44 -10 54 -13 23 -32
159 -24 171 9 14 607 12 622 -3z m4603 -42 c-1 -27 -9 -67 -17 -89 -8 -22 -14
-54 -14 -71 -1 -17 -7 -42 -15 -56 -8 -14 -14 -39 -15 -55 0 -17 -4 -35 -9
-40 -6 -6 -14 -28 -20 -50 -12 -51 -30 -103 -47 -137 -8 -14 -14 -31 -14 -37
0 -11 -81 -188 -100 -221 -5 -8 -19 -35 -32 -60 -12 -25 -35 -64 -50 -87 -15
-23 -28 -46 -28 -52 0 -6 -4 -11 -9 -11 -5 0 -13 -9 -16 -21 -9 -29 -171 -243
-241 -319 -163 -177 -426 -410 -463 -410 -5 0 -14 -6 -18 -13 -21 -35 -358
-218 -523 -285 -134 -53 -236 -86 -355 -112 -27 -6 -73 -18 -101 -26 -28 -8
-66 -14 -85 -14 -19 0 -51 -5 -72 -11 -68 -19 -67 -23 -67 305 0 290 0 293 23
313 14 14 40 23 77 26 68 6 158 29 230 57 30 12 69 25 85 29 28 7 92 35 190
83 44 21 61 30 120 67 22 14 56 34 75 44 19 11 46 29 60 42 14 12 32 26 41 31
45 25 175 138 268 233 85 88 213 257 277 366 14 22 108 214 129 260 21 47 41
105 60 170 10 33 24 80 31 104 8 25 14 54 14 66 0 12 3 25 7 28 4 4 146 6 317
5 l311 -3 -4 -49z"/>
<path d="M4140 5441 c-25 -9 -55 -22 -67 -29 -12 -7 -28 -12 -36 -12 -8 0 -48
-18 -88 -40 -41 -22 -83 -44 -94 -49 -12 -5 -32 -21 -45 -35 -14 -14 -30 -26
-37 -26 -7 0 -22 -13 -35 -30 -12 -16 -26 -30 -31 -30 -5 0 -18 -10 -29 -22
-11 -13 -37 -42 -59 -65 -21 -23 -39 -46 -39 -52 0 -5 -6 -14 -14 -18 -7 -4
-22 -24 -33 -43 -10 -19 -31 -54 -46 -77 -15 -24 -27 -48 -27 -54 0 -6 -6 -23
-13 -37 -63 -124 -71 -168 -71 -412 1 -228 10 -294 54 -386 17 -33 30 -68 30
-76 0 -9 7 -21 15 -28 8 -7 15 -19 15 -26 0 -8 4 -14 9 -14 5 0 13 -10 17 -22
4 -13 20 -39 35 -59 16 -20 29 -39 29 -42 0 -7 78 -94 108 -121 13 -12 43 -38
65 -58 23 -21 57 -45 75 -53 17 -9 32 -19 32 -23 0 -4 15 -15 33 -23 151 -74
228 -102 314 -115 24 -3 45 -10 49 -15 7 -12 341 -12 349 0 3 6 27 13 53 16
26 3 54 10 62 14 9 5 31 12 50 16 19 4 60 20 90 35 30 15 72 36 93 46 20 10
37 22 37 26 0 3 10 10 23 14 12 4 24 9 27 13 3 3 28 24 55 46 63 50 110 97
160 160 22 28 43 52 46 55 4 3 17 24 29 48 12 23 26 42 30 42 5 0 11 14 15 30
4 17 11 30 16 30 5 0 9 11 9 24 0 14 6 31 13 38 20 22 39 79 47 146 4 35 13
69 19 75 14 14 15 349 1 363 -6 6 -13 35 -16 65 -7 68 -19 102 -84 239 -28 60
-43 83 -57 93 -7 4 -13 14 -13 21 0 7 -13 25 -30 41 -16 16 -30 33 -30 37 0
11 -159 168 -169 168 -4 0 -22 13 -39 28 -17 15 -52 39 -77 53 -26 13 -65 34
-88 46 -23 12 -50 22 -60 22 -10 1 -28 6 -40 13 -77 42 -116 47 -357 46 -192
0 -243 -4 -280 -17z"/>
</g>
</svg>
